# xmcd
#
# Track frame offsets: 
#        150
#        18919
#        32577
#        43400
#        54940
#        67833
#        81697
#        93071
#        114517
#        126369
#        133914
#        143948
#        161501
#        178351
#        189532
#        197020
#        210398
#        219291
#        228821
#
# Disc length: 3228 seconds
#
# Revision: 0
# Processed by: cddbd v1.5.2PL0 Copyright (c) Steve Scherf et al.
# Submitted via: ExactAudioCopy v1.0b1
#
DISCID=0d0c9a13
DTITLE=Lantern Parade - a selection of songs 2004-2009
DYEAR=2009
DGENRE=
TTITLE0=ひとりの求愛者 初夏編
TTITLE1=甲州街道はもう夏なのさ
TTITLE2=とぎすまそう 2
TTITLE3=キンモクセイの匂いがして
TTITLE4=回送列車が行く
TTITLE5=寒暖差激しい四月
TTITLE6=とぎすまそう 10
TTITLE7=TOKYO EYE AND EAR CONTROL 14
TTITLE8=世界の終りには雨が
TTITLE9=おばかさん
TTITLE10=TOKYO EYE AND EAR CONTROL 16
TTITLE11=ある熱情
TTITLE12=光
TTITLE13=レンゲ畑の側に住んでた
TTITLE14=花
TTITLE15=さざめく心
TTITLE16=陽射しのある情景
TTITLE17=TOKYO EYE AND EAR CONTROL 29
TTITLE18=花散らしの雨が降って
EXTD=
EXTT0=
EXTT1=
EXTT2=
EXTT3=
EXTT4=
EXTT5=
EXTT6=
EXTT7=
EXTT8=
EXTT9=
EXTT10=
EXTT11=
EXTT12=
EXTT13=
EXTT14=
EXTT15=
EXTT16=
EXTT17=
EXTT18=
PLAYORDER=
